<?xml version="1.0" encoding="UTF-8" standalone="no"?>
<svg width="88px" height="100px" viewBox="0 0 88 100" version="1.1" xmlns="http://www.w3.org/2000/svg" xmlns:xlink="http://www.w3.org/1999/xlink">
    <!-- Generator: Sketch 41 (35326) - http://www.bohemiancoding.com/sketch -->
    <title>calendar</title>
    <desc>Created with Sketch.</desc>
    <defs></defs>
    <g id="Page-1" stroke="none" stroke-width="1" fill="none" fill-rule="evenodd">
        <g id="calendar" fill="#000000">
            <path d="M0,32 L0,91.906 C0,96.377 3.582,100 8,100 L80,100 C84.418,100 88,96.377 88,91.906 L88,32 L0,32 Z M22,94 L6,94 L6,78 L22,78 L22,94 Z M22,74 L6,74 L6,58 L22,58 L22,74 Z M22,54 L6,54 L6,38 L22,38 L22,54 Z M42,94 L26,94 L26,78 L42,78 L42,94 Z M42,74 L26,74 L26,58 L42,58 L42,74 Z M42,54 L26,54 L26,38 L42,38 L42,54 Z M62,94 L46,94 L46,78 L62,78 L62,94 Z M62,74 L46,74 L46,58 L62,58 L62,74 Z M62,54 L46,54 L46,38 L62,38 L62,54 Z M82,94 L66,94 L66,78 L82,78 L82,94 Z M82,74 L66,74 L66,58 L82,58 L82,74 Z M82,54 L66,54 L66,38 L82,38 L82,54 Z" id="Shape"></path>
            <path d="M80,12 L67,12 L67,3 C67,1.343 65.656,0 64,0 C62.343,0 61,1.343 61,3 L61,12 L27,12 L27,3 C27,1.343 25.656,0 24,0 C22.343,0 21,1.343 21,3 L21,12 L8,12 C3.582,12 0,15.623 0,20.093 L0,27 L0,27 L0,28 L88,28 L88,27 L88,27 L88,20.093 C88,15.623 84.418,12 80,12 Z M24,26 C20.687,26 18,23.313 18,20 C18,17.781 19.209,15.848 21,14.81 L21,20 C21,21.657 22.343,23 24,23 C25.656,23 27,21.657 27,20 L27,14.809 C28.792,15.847 30,17.781 30,20 C30,23.313 27.314,26 24,26 Z M64,26 C60.687,26 58,23.313 58,20 C58,17.781 59.209,15.848 61,14.81 L61,20 C61,21.657 62.343,23 64,23 C65.656,23 67,21.657 67,20 L67,14.809 C68.792,15.847 70,17.781 70,20 C70,23.313 67.314,26 64,26 Z" id="Shape"></path>
        </g>
    </g>
</svg>