<?xml version="1.0" encoding="UTF-8" standalone="no"?>
<svg width="84px" height="82px" viewBox="0 0 84 82" version="1.1" xmlns="http://www.w3.org/2000/svg" xmlns:xlink="http://www.w3.org/1999/xlink">
    <!-- Generator: Sketch 41 (35326) - http://www.bohemiancoding.com/sketch -->
    <title>pie-chart</title>
    <desc>Created with Sketch.</desc>
    <defs></defs>
    <g id="Page-1" stroke="none" stroke-width="1" fill="none" fill-rule="evenodd">
        <g id="pie-chart" fill="#000000">
            <path d="M75.1,44.3 C75.1,64.7 58.5,81.4 38,81.4 C17.5,81.4 0.9,64.7 0.9,44.3 C0.9,23.9 17.5,7.2 38,7.2 C41,7.2 44,7.6 46.9,8.3 C47.3,8.4 47.8,8.6 48.1,8.9 L40.6,39 C40.4,39.9 40.6,40.9 41.3,41.6 C41.8,42.2 42.6,42.5 43.4,42.5 L43.9,42.5 L74.3,37.3 C74.4,37.5 74.5,37.8 74.6,38.1 C74.9,40.1 75.1,42.2 75.1,44.3 Z" id="Shape"></path>
            <path d="M50.1,36.1 C49.4,36.1 48.7,35.8 48.2,35.3 C47.6,34.7 47.4,33.8 47.6,33 L55.1,2.8 C55.4,1.6 56.4,0.9 57.6,0.9 C57.8,0.9 58,0.9 58.2,1 C71.2,4.2 81.1,14.8 83.3,28 C83.5,29.4 82.6,30.7 81.2,30.9 L50.6,36 C50.4,36.1 50.3,36.1 50.1,36.1 Z" id="Shape"></path>
        </g>
    </g>
</svg>