<svg width="45px" height="30px" viewBox="0 0 204 137">
  <g stroke="none" strokeWidth="1" fill="none">
    <g id="logo-svg" transform="translate(0.000000, -0.362180)">
      <path d="M0,108.36218 L204,108.36218 L204,137.36218 L0,137.36218 L0,108.36218 Z M2,110.36218 L202,110.36218 L202,135.36218 L2,135.36218 L2,110.36218 Z" id="Shape"></path>
      <path d="M50,54.36218 L204,54.36218 L204,83.36218 L50,83.36218 L50,54.36218 Z M52,56.36218 L202,56.36218 L202,81.36218 L52,81.36218 L52,56.36218 Z" id="Shape"></path>
      <path d="M100,0.36218 L204,0.36218 L204,29.36218 L100,29.36218 L100,0.36218 Z M102,2.36218 L202,2.36218 L202,27.36218 L102,27.36218 L102,2.36218 Z" id="Shape"></path>
    </g>
  </g>
</svg>