<svg xmlns="http://www.w3.org/2000/svg" xmlns:xlink="http://www.w3.org/1999/xlink" version="1.1" x="0px" y="0px" viewBox="0 0 100 125" enable-background="new 0 0 100 100" xml:space="preserve"><ellipse fill="#000000" cx="50" cy="43.583" rx="18" ry="18.357"/><path fill="#000000" d="M50,5C25.147,5,5,25.147,5,50c0,24.853,20.147,45,45,45c24.853,0,45-20.147,45-45C95,25.147,74.853,5,50,5z   M77.619,77.507C71.725,71.782,61.558,68,50,68c-11.558,0-21.725,3.782-27.619,9.507C15.352,70.449,11,60.724,11,50  c0-21.505,17.495-39,39-39c21.505,0,39,17.495,39,39C89,60.724,84.648,70.449,77.619,77.507z"/></svg>
