<svg xmlns="http://www.w3.org/2000/svg" xmlns:xlink="http://www.w3.org/1999/xlink" version="1.1" x="0px" y="0px" viewBox="0 0 100 125" style="enable-background:new 0 0 100 100;" xml:space="preserve"><g><path d="M79,48.7c-3.5,1.6-5,5.8-3.4,9.3c1.8,3.8,2.7,7.8,2.7,12c0,3.9,3.1,7,7,7s7-3.1,7-7c0-6.3-1.3-12.3-4-18   C86.7,48.5,82.5,47,79,48.7z"/><path d="M53.8,41.9c3.8,0.5,7.4-2.2,7.9-6s-2.2-7.4-6-7.9c-1.9-0.3-3.8-0.4-5.7-0.4c-23.3,0-42.3,19-42.3,42.3c0,3.9,3.1,7,7,7   s7-3.1,7-7c0-15.6,12.7-28.3,28.3-28.3C51.3,41.7,52.6,41.8,53.8,41.9z"/><path d="M82.5,27.5c-0.8-0.7-2-0.7-2.7,0.1L44.4,65.8c-0.3,0.3-0.6,0.7-0.8,1.1c-2,3.3-1,7.6,2.3,9.7c3.3,2,7.6,1,9.7-2.3   l27.2-44.4C83.3,29.1,83.2,28.1,82.5,27.5z"/></g></svg>
