<?xml version="1.0" encoding="UTF-8" standalone="no"?>
<svg width="86px" height="51px" viewBox="0 0 86 51" version="1.1" xmlns="http://www.w3.org/2000/svg" xmlns:xlink="http://www.w3.org/1999/xlink">
    <!-- Generator: Sketch 41 (35326) - http://www.bohemiancoding.com/sketch -->
    <title>Group</title>
    <desc>Created with Sketch.</desc>
    <defs></defs>
    <g id="Page-1" stroke="none" stroke-width="1" fill="none" fill-rule="evenodd">
        <g id="Group" transform="translate(0.000000, -1.000000)" fill="#FFFFFF">
            <path d="M72,22.7 C68.5,24.3 67,28.5 68.6,32 C70.4,35.8 71.3,39.8 71.3,44 C71.3,47.9 74.4,51 78.3,51 C82.2,51 85.3,47.9 85.3,44 C85.3,37.7 84,31.7 81.3,26 C79.7,22.5 75.5,21 72,22.7 Z" id="Shape"></path>
            <path d="M46.8,15.9 C50.6,16.4 54.2,13.7 54.7,9.9 C55.2,6.1 52.5,2.5 48.7,2 C46.8,1.7 44.9,1.6 43,1.6 C19.7,1.6 0.7,20.6 0.7,43.9 C0.7,47.8 3.8,50.9 7.7,50.9 C11.6,50.9 14.7,47.8 14.7,43.9 C14.7,28.3 27.4,15.6 43,15.6 C44.3,15.7 45.6,15.8 46.8,15.9 Z" id="Shape"></path>
            <path d="M75.5,1.5 C74.7,0.8 73.5,0.8 72.8,1.6 L37.4,39.8 C37.1,40.1 36.8,40.5 36.6,40.9 C34.6,44.2 35.6,48.5 38.9,50.6 C42.2,52.6 46.5,51.6 48.6,48.3 L75.8,3.9 C76.3,3.1 76.2,2.1 75.5,1.5 Z" id="Shape"></path>
        </g>
    </g>
</svg>