<svg xmlns="http://www.w3.org/2000/svg" xmlns:xlink="http://www.w3.org/1999/xlink" version="1.1" x="0px" y="0px" viewBox="0 0 30 37.5" xml:space="preserve"><g transform="translate(-450 -200)"><g xmlns="http://www.w3.org/2000/svg" xmlns:xlink="http://www.w3.org/1999/xlink"><polygon points="452,214 451,214 451,216 452,216 452,219 455,219 455,211 452,211   "/><polygon points="470,214 460,214 460,208 456,208 456,222 460,222 460,216 470,216 470,222 474,222 474,208 470,208   "/><polygon points="478,214 478,211 475,211 475,219 478,219 478,216 479,216 479,214   "/></g></g></svg>
