<svg xmlns="http://www.w3.org/2000/svg" xmlns:xlink="http://www.w3.org/1999/xlink" version="1.1" x="0px" y="0px" viewBox="0 0 100 125" style="enable-background:new 0 0 100 100;" xml:space="preserve"><path d="M49.4,11.5L0.7,44.2l4.2,6.2l9.8-6.6v44.9h70.6V44.1l9.5,6.3l4.1-6.2L49.4,11.5z M49.9,80.5c-10.8,0-19.6-8.8-19.6-19.6  s8.8-19.6,19.6-19.6s19.6,8.8,19.6,19.6S60.7,80.5,49.9,80.5z"/><path d="M60.4,53.2c0,0-6-5.1-10.5,1.9c-4.5-7-10.5-1.9-10.5-1.9c-4.2,3.8,0,8.9,0,8.9c1.6,2.8,9.5,10.3,10.5,11.3  l0,0l0.1,0.1c0.7-0.7,8.9-8.5,10.5-11.3C60.4,62.1,64.6,57,60.4,53.2z"/></svg>
