<svg xmlns="http://www.w3.org/2000/svg" data-name="Layer 1" viewBox="0 0 512 640" x="0px" y="0px"><title>d4</title><path d="M489.6,56H172.8A22.92,22.92,0,0,0,150,78.6V131H309.85c26,0,47.15,21.58,47.15,47.6V310h38l52.8,63.14c12.37,14.75,22.44,11,22.37-8.29L469.94,310H489.6c12.37,0,22.4-9.43,22.4-21.8V78.6A22.57,22.57,0,0,0,489.6,56Z"/><path d="M309.8,163H15.2C6.81,163,0,170.21,0,178.6V367.2A14.86,14.86,0,0,0,15.2,382H40v56.4c0,19.25,10.33,22.7,22.65,7.9L116.28,382H309.8A14.86,14.86,0,0,0,325,367.2V178.6C325,170.21,318.19,163,309.8,163ZM78.66,299.12a21.56,21.56,0,1,1,21.56-21.56A21.56,21.56,0,0,1,78.66,299.12Zm82.84,0a21.56,21.56,0,1,1,21.56-21.56A21.56,21.56,0,0,1,161.5,299.12Zm82.84,0a21.56,21.56,0,1,1,21.56-21.56A21.56,21.56,0,0,1,244.34,299.12Z"/></svg>
