<?xml version="1.0" encoding="UTF-8" standalone="no"?>
<svg width="512px" height="400px" viewBox="0 0 512 400" version="1.1" xmlns="http://www.w3.org/2000/svg" xmlns:xlink="http://www.w3.org/1999/xlink">
    <!-- Generator: Sketch 41 (35326) - http://www.bohemiancoding.com/sketch -->
    <title>messages</title>
    <desc>Created with Sketch.</desc>
    <defs></defs>
    <g id="Page-1" stroke="none" stroke-width="1" fill="none" fill-rule="evenodd">
        <g id="messages" fill="#FFFFFF">
            <path d="M489.6,0 L172.8,0 C160.312309,0.0641665808 150.174186,10.1133587 150,22.6 L150,75 L309.85,75 C335.85,75 357,96.58 357,122.6 L357,254 L395,254 L447.8,317.14 C460.17,331.89 470.24,328.14 470.17,308.85 L469.94,254 L489.6,254 C501.97,254 512,244.57 512,232.2 L512,22.6 C512.016848,10.1893258 502.010334,0.0934673653 489.6,7.10542736e-15 L489.6,0 Z" id="Shape"></path>
            <path d="M309.8,107 L15.2,107 C6.81,107 0,114.21 0,122.6 L0,311.2 C0.0150665119,315.190323 1.63433827,319.006919 4.49331016,321.790654 C7.35228206,324.57439 11.2106937,326.091329 15.2,326 L40,326 L40,382.4 C40,401.65 50.33,405.1 62.65,390.3 L116.28,326 L309.8,326 C313.789306,326.091329 317.647718,324.57439 320.50669,321.790654 C323.365662,319.006919 324.984933,315.190323 325,311.2 L325,122.6 C325,114.21 318.19,107 309.8,107 Z M78.66,243.12 C66.7527408,243.12 57.1,233.467259 57.1,221.56 C57.1,209.652741 66.7527408,200 78.66,200 C90.5672592,200 100.22,209.652741 100.22,221.56 C100.22,233.467259 90.5672592,243.12 78.66,243.12 Z M161.5,243.12 C149.592741,243.12 139.94,233.467259 139.94,221.56 C139.94,209.652741 149.592741,200 161.5,200 C173.407259,200 183.06,209.652741 183.06,221.56 C183.06,233.467259 173.407259,243.12 161.5,243.12 Z M244.34,243.12 C235.619794,243.12 227.758236,237.867075 224.421157,229.810655 C221.084079,221.754235 222.928661,212.480895 229.094778,206.314778 C235.260895,200.148661 244.534235,198.304079 252.590655,201.641157 C260.647075,204.978236 265.9,212.839794 265.9,221.56 C265.9,233.467259 256.247259,243.12 244.34,243.12 Z" id="Shape"></path>
        </g>
    </g>
</svg>