<svg xmlns="http://www.w3.org/2000/svg" xmlns:xlink="http://www.w3.org/1999/xlink" version="1.1" x="0px" y="0px" viewBox="0 0 139.124 146.26749999999998" style="enable-background:new 0 0 139.124 117.014;" xml:space="preserve"><g><ellipse transform="matrix(0.4423 -0.8969 0.8969 0.4423 28.7058 91.1627)" cx="87.653" cy="22.5" rx="22.495" ry="22.496"/><path d="M131.382,92.954c-23.742-9.786-45.399-12.932-63.176-12.925c-9.188,0.006-17.329,0.836-24.246,1.997   c5.096-6.777,10.602-13.006,15.254-18.353c-5.878-3.661-9.735-6.584-11.295-7.819l-0.02-0.016l-0.1-0.077   c-4.27-3.485-4.912-9.796-1.428-14.068c1.906-2.339,4.733-3.681,7.754-3.681c2.291,0,4.535,0.801,6.315,2.253l0.173,0.134   c0.134,0.107,0.377,0.293,0.705,0.543c0.604,0.456,1.634,1.213,3.07,2.21c1.082,0.747,2.479,1.68,4.135,2.73   c0.2-3.918-0.872-7.58-3.564-10.142c-6.373-6.066-19.424-8.145-31.031,2.104C18.05,52.027,10.296,62.725,1.577,83.321   c-5.228,15.545,3.551,22.431,11.578,26.855c3.825,2.107,6.743,3.47,9.42,2.967c2.071,0.149,4.208-0.21,6.22-1.159   c0.205-0.094,1.092-0.483,2.659-1.054c5.405-1.969,18.547-5.903,36.752-5.899c14.866,0.007,33.106,2.583,53.655,11.039   c1.558,0.642,3.17,0.945,4.756,0.945c4.914,0.001,9.574-2.916,11.561-7.742C140.809,102.889,137.765,95.584,131.382,92.954z"/><path d="M60.109,42.534c-0.343-0.262-0.595-0.455-0.75-0.578c-0.078-0.063-0.131-0.105-0.162-0.13   c-0.018-0.013-0.018-0.013-0.02-0.013c-3.423-2.794-8.463-2.283-11.255,1.143c-2.792,3.422-2.28,8.462,1.143,11.256v-0.003   c0.228,0.174,4.253,3.445,11.486,7.92c11.584,7.165,31.417,17.423,57.21,23.035c0.57,0.124,1.141,0.184,1.701,0.184   c3.685,0,6.998-2.561,7.811-6.308c0.936-4.318-1.805-8.578-6.123-9.514c-19.055-4.126-34.693-11.142-45.5-17.104   c-2.783-1.535-5.24-2.996-7.357-4.32c-1.99-1.244-3.682-2.367-5.041-3.307C61.851,43.825,60.794,43.05,60.109,42.534z"/></g></svg>
