<?xml version="1.0" encoding="UTF-8" standalone="no"?>
<svg width="140px" height="117px" viewBox="0 0 140 117" version="1.1" xmlns="http://www.w3.org/2000/svg" xmlns:xlink="http://www.w3.org/1999/xlink">
    <!-- Generator: Sketch 41 (35326) - http://www.bohemiancoding.com/sketch -->
    <title>Group</title>
    <desc>Created with Sketch.</desc>
    <defs></defs>
    <g id="Page-1" stroke="none" stroke-width="1" fill="none" fill-rule="evenodd">
        <g id="Group" transform="translate(0.000000, -8.000000)" fill="#000000">
            <ellipse id="Oval" transform="translate(87.654972, 30.498474) rotate(-63.750110) translate(-87.654972, -30.498474) " cx="87.6549719" cy="30.4984743" rx="22.4956625" ry="22.4966625"></ellipse>
            <path d="M131.382,100.954 C107.64,91.168 85.983,88.022 68.206,88.029 C59.018,88.035 50.877,88.865 43.96,90.026 C49.056,83.249 54.562,77.02 59.214,71.673 C53.336,68.012 49.479,65.089 47.919,63.854 L47.899,63.838 L47.799,63.761 C43.529,60.276 42.887,53.965 46.371,49.693 C48.277,47.354 51.104,46.012 54.125,46.012 C56.416,46.012 58.66,46.813 60.44,48.265 L60.613,48.399 C60.747,48.506 60.99,48.692 61.318,48.942 C61.922,49.398 62.952,50.155 64.388,51.152 C65.47,51.899 66.867,52.832 68.523,53.882 C68.723,49.964 67.651,46.302 64.959,43.74 C58.586,37.674 45.535,35.595 33.928,45.844 C18.05,60.027 10.296,70.725 1.577,91.321 C-3.651,106.866 5.128,113.752 13.155,118.176 C16.98,120.283 19.898,121.646 22.575,121.143 C24.646,121.292 26.783,120.933 28.795,119.984 C29,119.89 29.887,119.501 31.454,118.93 C36.859,116.961 50.001,113.027 68.206,113.031 C83.072,113.038 101.312,115.614 121.861,124.07 C123.419,124.712 125.031,125.015 126.617,125.015 C131.531,125.016 136.191,122.099 138.178,117.273 C140.809,110.889 137.765,103.584 131.382,100.954 Z" id="Shape"></path>
            <path d="M60.109,50.534 C59.766,50.272 59.514,50.079 59.359,49.956 C59.281,49.893 59.228,49.851 59.197,49.826 C59.179,49.813 59.179,49.813 59.177,49.813 C55.754,47.019 50.714,47.53 47.922,50.956 C45.13,54.378 45.642,59.418 49.065,62.212 L49.065,62.209 C49.293,62.383 53.318,65.654 60.551,70.129 C72.135,77.294 91.968,87.552 117.761,93.164 C118.331,93.288 118.902,93.348 119.462,93.348 C123.147,93.348 126.46,90.787 127.273,87.04 C128.209,82.722 125.468,78.462 121.15,77.526 C102.095,73.4 86.457,66.384 75.65,60.422 C72.867,58.887 70.41,57.426 68.293,56.102 C66.303,54.858 64.611,53.735 63.252,52.795 C61.851,51.825 60.794,51.05 60.109,50.534 Z" id="Shape"></path>
        </g>
    </g>
</svg>