<?xml version="1.0" encoding="UTF-8" standalone="no"?>
<svg width="64px" height="86px" viewBox="0 0 64 86" version="1.1" xmlns="http://www.w3.org/2000/svg" xmlns:xlink="http://www.w3.org/1999/xlink">
    <!-- Generator: Sketch 41 (35326) - http://www.bohemiancoding.com/sketch -->
    <title>Group</title>
    <desc>Created with Sketch.</desc>
    <defs></defs>
    <g id="Page-1" stroke="none" stroke-width="1" fill="none" fill-rule="evenodd">
        <g id="Group" transform="translate(0.000000, -0.362180)" fill="#000000">
            <path d="M0,0.36217 L0,86.3622 L64,86.3622 L64,16.36219 L50,16.36219 C48.9163,16.35119 48.01,15.33669 48,14.36219 L48,0.36217 L0,0.36217 L0,0.36217 Z M52,2.36217 L52,12.36219 L62,12.36219 L52,2.36217 Z M13,19.36219 C15.209,19.36219 17,21.15309 17,23.36219 C17,25.57129 15.209,27.36219 13,27.36219 C10.791,27.36219 9,25.57129 9,23.36219 C9,21.15309 10.791,19.36219 13,19.36219 Z M26,21.36219 L53,21.36219 C54.1046,21.36219 55,22.25759 55,23.36219 C55,24.46679 54.1046,25.36219 53,25.36219 L26,25.36219 C24.8954,25.36219 24,24.46679 24,23.36219 C24,22.25759 24.8954,21.36219 26,21.36219 Z M13,35.36219 C15.209,35.36219 17,37.15309 17,39.36219 C17,41.5713 15.209,43.3622 13,43.3622 C10.791,43.3622 9,41.5713 9,39.36219 C9,37.15309 10.791,35.36219 13,35.36219 Z M26,37.36219 L53,37.36219 C54.1046,37.36219 55,38.25759 55,39.36219 C55,40.46679 54.1046,41.3622 53,41.3622 L26,41.3622 C24.8954,41.3622 24,40.46679 24,39.36219 C24,38.25759 24.8954,37.36219 26,37.36219 Z M13,51.3622 C15.209,51.3622 17,53.1531 17,55.3622 C17,57.5713 15.209,59.3622 13,59.3622 C10.791,59.3622 9,57.5713 9,55.3622 C9,53.1531 10.791,51.3622 13,51.3622 Z M26,53.3622 L53,53.3622 C54.1046,53.3622 55,54.2576 55,55.3622 C55,56.4668 54.1046,57.3622 53,57.3622 L26,57.3622 C24.8954,57.3622 24,56.4668 24,55.3622 C24,54.2576 24.8954,53.3622 26,53.3622 Z M13,67.3622 C15.209,67.3622 17,69.1531 17,71.3622 C17,73.5713 15.209,75.3622 13,75.3622 C10.791,75.3622 9,73.5713 9,71.3622 C9,69.1531 10.791,67.3622 13,67.3622 Z M26,69.3622 L53,69.3622 C54.1046,69.3622 55,70.2576 55,71.3622 C55,72.4668 54.1046,73.3622 53,73.3622 L26,73.3622 C24.8954,73.3622 24,72.4668 24,71.3622 C24,70.2576 24.8954,69.3622 26,69.3622 Z" id="Shape"></path>
        </g>
    </g>
</svg>