<?xml version="1.0" encoding="UTF-8" standalone="no"?>
<svg width="84px" height="56px" viewBox="0 0 84 56" version="1.1" xmlns="http://www.w3.org/2000/svg" xmlns:xlink="http://www.w3.org/1999/xlink">
    <!-- Generator: Sketch 41.2 (35397) - http://www.bohemiancoding.com/sketch -->
    <title>Group</title>
    <desc>Created with Sketch.</desc>
    <defs></defs>
    <g id="Page-1" stroke="none" stroke-width="1" fill="none" fill-rule="evenodd">
        <g id="Group" transform="translate(0.000000, -0.362180)" fill="#FFFFFF">
            <path d="M3,0.36218 C1.37258,0.36218 0,1.73478 0,3.36218 L0,53.3622 C0,54.9896 1.37258,56.3622 3,56.3622 L81,56.3622 C82.62742,56.3622 84,54.9896 84,53.3622 L84,3.36218 C84,1.73478 82.62742,0.36218 81,0.36218 L3,0.36218 L3,0.36218 Z M7.03125,4.36218 L76.96875,4.36218 L42,36.6435 L7.03125,4.36218 Z M4,6.98718 L26.625,27.8622 L4,49.6122 L4,6.98718 Z M80,6.98718 L80,49.6122 L57.375,27.8622 L80,6.98718 Z M29.5625,30.581 L40.65625,40.831 C41.4186523,41.5224679 42.5813477,41.5224679 43.34375,40.831 L54.4375,30.581 L77.09375,52.3622 L6.90625,52.3622 L29.5625,30.581 L29.5625,30.581 Z" id="Shape"></path>
        </g>
    </g>
</svg>